 <svg  version="1.0" xmlns="http://www.w3.org/2000/svg"
   width="70.000000pt" height="70.000000pt" viewBox="0 0 300.000000 300.000000" 
    preserveAspectRatio="xMidYMid meet">  
    <g transform="translate(0.000000,300.000000)
     scale(0.100000,-0.100000)"
      fill="#0e293f" stroke="none"> 
      <path d="M2975 2908 c-3 -13 -4 -245 -3 -517 3 -429 5 -495 18 -499 12 -4 13 -2 3 9 -18 19 -19 999 -1 1017 9 9 9 12 0 12 -6 0 -14 -10 -17 -22z"/> <path d="M2221 2021 c-27 -25 -31 -36 -31 -79 0 -55 -7 -62 -65 -62 -24 0 -59 18 -130 65 -54 36 -108 65 -120 65 -12 0 -59 -25 -104 -55 -44 -31 -117 -74 -160 -95 -142 -71 -149 -127 -21 -164 80 -24 90 -32 64 -54 -12 -10 -46 -24 -76 -31 -102 -22 -140 -99 -68 -136 17 -9 55 -15 94 -15 l64 0 -30 -55 c-41 -76 -50 -163 -19 -194 27 -27 50 -27 91 2 39 25 97 117 106 165 8 42 -9 80 -41 92 -14 5 -25 14 -25 20 0 5 37 35 83 65 45 31 117 85 160 120 70 59 82 65 123 65 41 0 45 -2 42 -22 -2 -17 -29 -36 -107 -78 l-105 -55 -12 -53 c-6 -29 -19 -61 -29 -72 -38 -41 3 -232 56 -263 27 -16 67 1 85 35 14 27 16 50 10 140 -5 88 -4 108 7 108 27 0 155 71 201 111 56 49 72 48 147 -14 62 -49 68 -63 37 -72 -34 -11 -58 -35 -58 -60 0 -34 65 -157 105 -198 42 -43 72 -47 104 -13 33 35 29 83 -12 170 l-35 74 68 0 c84 1 137 21 146 56 14 56 -22 85 -138 112 -71 17 -178 69 -178 88 0 9 19 16 57 20 99 12 120 54 53 107 -37 30 -40 36 -40 81 0 77 -54 109 -134 78 -20 -7 -37 -5 -72 10 -58 25 -56 25 -93 -9z m89 -25 c6 -8 15 -45 18 -82 l7 -67 80 2 c93 2 139 -9 143 -32 5 -26 -38 -37 -141 -37 l-92 -1 45 -40 c44 -39 208 -129 236 -129 28 0 124 -42 124 -54 0 -17 -44 -36 -100 -43 -55 -6 -85 8 -213 102 -94 69 -120 77 -137 45 -22 -41 -215 -160 -260 -160 -12 0 -32 11 -46 25 -21 21 -23 29 -14 40 7 8 18 15 26 15 27 0 192 92 224 125 49 50 37 65 -53 65 -40 0 -78 5 -83 10 -8 8 -29 -6 -70 -45 -134 -126 -333 -245 -410 -245 -53 0 -95 30 -75 53 7 9 36 23 64 33 73 23 167 65 167 75 0 14 -108 70 -147 76 -100 15 -89 45 34 98 100 43 128 60 197 123 l49 45 20 -27 c11 -16 51 -48 89 -72 48 -31 68 -50 68 -65 0 -11 3 -19 8 -17 60 31 91 40 130 35 l44 -5 -7 63 c-4 40 -2 71 5 84 12 24 52 28 70 7z m158 -8 c19 -19 14 -54 -14 -87 -31 -38 -51 -39 -64 -5 -25 63 36 134 78 92z m48 -533 c23 -35 64 -151 64 -180 0 -28 -14 -39 -34 -28 -18 10 -126 171 -126 189 0 20 29 44 55 44 15 0 31 -10 41 -25z m-752 -5 c35 -13 34 -44 -5 -106 -83 -131 -127 -161 -114 -77 13 87 60 193 86 193 4 0 19 -4 33 -10z m244 -2 c15 -15 16 -196 2 -218 -15 -24 -41 0 -61 58 -26 77 -34 139 -19 157 15 18 61 20 78 3z"/> <path d="M1845 1870 c-10 -16 19 -54 61 -81 35 -21 37 -22 50 -4 9 12 10 23 3 36 -19 37 -100 72 -114 49z"/> <path d="M1727 1784 c-19 -19 70 -94 111 -94 37 0 27 36 -20 70 -38 28 -77 38 -91 24z"/> <path d="M757 2019 c-9 -5 -35 -34 -56 -63 l-40 -53 -88 -5 c-98 -5 -142 -21 -160 -58 -14 -30 -33 -283 -34 -462 -1 -109 2 -132 18 -160 30 -52 63 -63 152 -49 42 6 187 11 322 11 136 0 260 3 277 6 17 3 44 18 61 33 l31 26 6 300 7 300 -26 30 -25 30 -146 3 -146 4 0 34 c0 51 -37 84 -92 84 -24 0 -51 -5 -61 -11z m91 -39 c42 -26 41 -43 -5 -76 -21 -16 -42 -31 -46 -35 -5 -3 76 -4 180 -1 173 4 190 3 211 -14 l23 -19 -11 -272 c-7 -150 -15 -285 -19 -300 l-7 -28 -275 -7 c-151 -4 -309 -12 -352 -18 -72 -10 -81 -10 -99 7 -20 18 -20 24 -13 273 11 357 8 330 36 353 20 16 34 18 85 14 96 -9 126 4 185 79 28 35 56 64 62 64 7 0 27 -9 45 -20z"/> <path d="M733 1790 c-142 -9 -198 -29 -198 -70 0 -24 2 -25 95 -33 93 -7 441 6 460 18 17 10 11 64 -7 73 -27 14 -213 20 -350 12z m137 -50 c-21 -13 -134 -24 -167 -15 -50 12 -3 25 92 25 59 0 85 -3 75 -10z m105 0 c-28 -12 -65 -12 -65 0 0 6 19 10 43 9 32 0 37 -2 22 -9z"/> <path d="M758 1610 c-114 -3 -212 -10 -217 -15 -5 -6 -12 -28 -15 -50 l-7 -40 272 3 c154 2 280 7 291 13 13 7 18 21 18 54 l0 45 -67 -2 c-38 -1 -161 -4 -275 -8z m-50 -52 c-5 -15 -88 -24 -88 -9 0 11 23 18 63 20 19 1 27 -3 25 -11z m236 4 c8 -13 -23 -18 -131 -21 -81 -2 -105 3 -89 20 10 9 214 10 220 1z"/> <path d="M662 1421 c-132 -7 -142 -11 -142 -62 0 -15 6 -31 13 -37 21 -17 153 -23 346 -14 175 7 184 9 202 31 28 34 25 69 -7 81 -27 11 -207 11 -412 1z m370 -53 c-22 -22 -432 -29 -432 -8 0 14 43 17 250 19 155 1 192 -2 182 -11z"/> <path d="M2178 1479 c-29 -29 -30 -33 -26 -93 11 -132 96 -221 164 -172 42 31 5 243 -49 281 -32 22 -55 18 -89 -16z m72 -9 c26 -14 40 -70 40 -155 0 -91 -10 -107 -40 -64 -31 43 -69 137 -70 171 0 17 8 33 22 42 27 19 24 19 48 6z"/> </g> </svg> 