<?xml version="1.0" standalone="no"?>
<!DOCTYPE svg PUBLIC "www.thannever.com"
 "http://www.thannever.com">
<svg version="1.0" xmlns="http://www.w3.org/2000/svg"
 width="300.000000pt" height="242.000000pt" viewBox="0 0 300.000000 242.000000"
 preserveAspectRatio="xMidYMid meet">
<metadata>
Created by derrick griffines
</metadata>
<g transform="translate(0.000000,242.000000) scale(0.100000,-0.100000)"
fill="#000000" stroke="none">
<path d="M2010 1405 c-18 -19 -22 -32 -17 -58 6 -40 -6 -57 -43 -57 -29 0 -57
17 -117 72 -56 50 -79 49 -138 -8 -27 -25 -79 -61 -117 -80 -51 -26 -69 -40
-74 -61 -10 -36 6 -56 56 -70 24 -7 48 -17 53 -22 16 -16 -11 -40 -52 -47
-112 -20 -105 -131 9 -128 l48 2 -24 -54 c-72 -164 36 -234 111 -72 14 29 25
65 25 80 0 26 -22 58 -41 58 -24 0 -4 31 39 59 26 16 76 60 112 96 53 54 70
65 97 65 25 0 33 -4 33 -18 0 -19 -15 -30 -100 -78 -51 -28 -55 -33 -58 -70
-2 -21 -9 -46 -16 -54 -23 -27 -26 -51 -14 -121 13 -83 45 -127 78 -109 35 19
43 48 37 141 l-6 87 64 32 c36 18 75 47 90 66 14 19 33 34 41 34 16 0 104 -77
104 -92 0 -4 -11 -13 -25 -18 -40 -15 -41 -50 -4 -130 29 -64 67 -110 90 -110
5 0 18 9 29 20 27 27 25 75 -5 144 l-25 56 46 0 c84 0 132 45 100 95 -13 20
-68 45 -100 45 -4 0 -31 12 -59 26 -78 39 -85 64 -18 64 66 0 84 52 32 90 -25
17 -29 25 -24 54 10 63 -31 99 -87 76 -23 -9 -34 -9 -58 4 -40 21 -44 20 -72
-9z m67 -17 c4 -7 10 -38 13 -68 l5 -55 73 0 c53 0 75 -4 82 -15 17 -28 -9
-40 -88 -40 l-76 0 35 -36 c45 -47 109 -84 189 -110 38 -12 65 -27 65 -35 0
-19 -44 -39 -87 -39 -31 0 -48 9 -105 61 -85 76 -111 90 -125 66 -24 -44 -151
-137 -186 -137 -25 0 -56 35 -49 55 4 8 14 15 24 15 26 0 112 52 151 91 48 47
40 65 -27 60 -37 -2 -56 1 -62 10 -6 10 -13 7 -29 -14 -64 -81 -216 -199 -282
-219 -60 -18 -115 18 -75 49 6 6 36 18 64 27 29 10 62 25 74 35 l22 17 -44 32
c-27 20 -55 32 -75 32 -37 0 -50 22 -26 43 9 8 47 29 84 46 46 22 79 46 104
76 40 49 51 54 61 28 8 -20 22 -33 76 -69 23 -15 37 -32 37 -46 0 -21 0 -21
21 -2 14 12 36 19 63 19 l41 0 -2 55 c-4 67 1 80 26 80 11 0 23 -6 28 -12z
m121 -29 c4 -31 -38 -86 -56 -75 -16 10 -15 79 0 94 21 21 53 10 56 -19z m16
-402 c17 -12 56 -131 56 -169 0 -29 -34 -21 -48 12 -7 16 -24 45 -37 64 -33
49 -38 71 -20 90 20 19 26 20 49 3z m-523 -17 c28 -15 24 -34 -23 -116 -41
-70 -68 -93 -68 -58 0 36 33 155 47 169 17 18 19 18 44 5z m169 0 c11 -7 14
-28 12 -90 -2 -87 -6 -100 -26 -100 -18 0 -56 158 -44 183 9 19 35 22 58 7z"/>
<path d="M1744 1279 c-9 -15 60 -84 75 -75 23 14 12 55 -19 71 -35 18 -46 19
-56 4z"/>
<path d="M1660 1207 c0 -23 65 -78 83 -71 25 9 21 29 -14 58 -33 28 -69 34
-69 13z"/>
<path d="M972 1404 c-12 -8 -31 -33 -42 -55 -20 -39 -21 -39 -81 -39 -68 0
-117 -22 -124 -55 -8 -38 -14 -131 -21 -301 -6 -147 -5 -174 10 -202 26 -51
54 -58 136 -37 8 2 104 4 212 4 193 1 197 1 225 25 l28 24 6 249 c4 167 2 254
-5 265 -18 30 -61 40 -148 37 l-83 -4 -2 35 c-3 60 -62 89 -111 54z m66 -30
c30 -21 28 -38 -10 -69 l-33 -27 134 5 c121 4 135 3 152 -14 12 -12 17 -28 14
-42 -2 -12 -7 -115 -10 -228 -2 -113 -7 -213 -11 -222 -7 -20 9 -19 -194 -19
-159 0 -257 -7 -291 -22 -10 -4 -23 0 -34 11 -17 16 -17 34 -11 233 4 118 7
226 7 239 -2 42 26 63 75 55 74 -11 101 1 135 62 33 58 42 63 77 38z"/>
<path d="M941 1218 c-101 -8 -134 -24 -129 -62 3 -20 11 -21 108 -24 58 -1
148 1 200 5 92 8 95 9 98 34 2 14 -3 31 -11 38 -18 15 -144 19 -266 9z m112
-39 c-13 -13 -94 -20 -126 -11 -19 6 -17 7 13 13 62 11 125 10 113 -2z"/>
<path d="M928 1070 c-58 -3 -109 -7 -111 -10 -3 -3 -7 -21 -9 -40 l-3 -35 164
0 c91 -1 183 2 205 5 40 5 41 6 41 45 l0 40 -90 0 c-49 0 -138 -2 -197 -5z
m10 -42 c-3 -7 -10 -13 -16 -12 -57 5 -59 5 -32 14 38 12 52 11 48 -2z m46 0
c10 9 126 9 126 0 0 -5 -26 -8 -57 -8 -32 0 -68 -3 -80 -6 -18 -5 -23 -2 -23
11 0 13 3 15 13 6 8 -6 17 -7 21 -3z"/>
<path d="M960 919 c-63 -4 -123 -7 -132 -8 -22 -1 -33 -43 -18 -70 10 -20 18
-21 158 -20 81 0 167 4 192 7 39 6 45 11 54 40 17 60 -5 64 -254 51z m210 -39
c0 -16 -15 -19 -136 -24 -112 -6 -199 4 -164 17 36 14 300 20 300 7z"/>
<path d="M1982 967 c-54 -58 11 -253 77 -232 36 11 43 38 31 123 -16 116 -60
160 -108 109z m67 -25 c15 -29 17 -187 1 -187 -15 0 -69 129 -69 167 -1 39 50
54 68 20z"/>
</g>
</svg>
